<svg width="30" height="30" viewBox="0 0 30 30" fill="none" xmlns="http://www.w3.org/2000/svg">
<path d="M15 17.7441C14.7806 17.7441 14.5651 17.6864 14.375 17.5769L3.12502 11.0803C2.52704 10.7349 2.32226 9.97015 2.66766 9.37216C2.77736 9.18224 2.9351 9.0245 3.12502 8.9148L14.375 2.4231C14.7621 2.20093 15.238 2.20093 15.625 2.4231L26.875 8.9148C27.473 9.2602 27.6778 10.025 27.3324 10.623C27.2227 10.8129 27.0649 10.9706 26.875 11.0803L15.625 17.5769C15.4349 17.6864 15.2194 17.7441 15 17.7441Z" fill="#CDCDCD"/>
<path d="M26.875 13.9148L24.4199 12.4981L15.625 17.5769C15.2382 17.7999 14.7619 17.7999 14.375 17.5769L5.58016 12.4981L3.12502 13.9148C2.52704 14.2602 2.32226 15.025 2.66766 15.623C2.77736 15.8129 2.9351 15.9706 3.12502 16.0803L14.375 22.5769C14.7619 22.7999 15.2382 22.7999 15.625 22.5769L26.875 16.0803C27.473 15.7349 27.6778 14.9701 27.3324 14.3722C27.2227 14.1822 27.0649 14.0245 26.875 13.9148Z" fill="#CDCDCD"/>
<path d="M26.875 18.9148L24.4199 17.4981L15.625 22.5769C15.2382 22.7999 14.7619 22.7999 14.375 22.5769L5.58016 17.4981L3.12502 18.9148C2.52704 19.2602 2.32226 20.025 2.66766 20.623C2.77736 20.8129 2.9351 20.9706 3.12502 21.0803L14.375 27.5769C14.7619 27.7999 15.2382 27.7999 15.625 27.5769L26.875 21.0803C27.473 20.7349 27.6778 19.9701 27.3324 19.3722C27.2227 19.1822 27.0649 19.0245 26.875 18.9148Z" fill="#CDCDCD"/>
</svg>
