<svg width="26" height="26" viewBox="0 0 26 26" fill="none" xmlns="http://www.w3.org/2000/svg">
<path d="M18.3625 8.8875L21.2375 11.75L9.25001 11.75C8.91849 11.75 8.60055 11.8817 8.36613 12.1161C8.1317 12.3505 8.00001 12.6685 8.00001 13C8.00001 13.3315 8.1317 13.6495 8.36613 13.8839C8.60055 14.1183 8.91849 14.25 9.25001 14.25L21.2375 14.25L18.3625 17.1125C18.2453 17.2287 18.1524 17.367 18.0889 17.5193C18.0254 17.6716 17.9928 17.835 17.9928 18C17.9928 18.165 18.0254 18.3284 18.0889 18.4807C18.1524 18.633 18.2453 18.7713 18.3625 18.8875C18.4787 19.0047 18.617 19.0977 18.7693 19.1611C18.9216 19.2246 19.085 19.2572 19.25 19.2572C19.415 19.2572 19.5784 19.2246 19.7307 19.1611C19.8831 19.0977 20.0213 19.0047 20.1375 18.8875L25.1375 13.8875C25.2513 13.7686 25.3405 13.6284 25.4 13.475C25.525 13.1707 25.525 12.8293 25.4 12.525C25.3405 12.3716 25.2513 12.2314 25.1375 12.1125L20.1375 7.1125C20.021 6.99595 19.8826 6.9035 19.7303 6.84043C19.578 6.77735 19.4148 6.74489 19.25 6.74489C19.0852 6.74489 18.922 6.77735 18.7697 6.84043C18.6174 6.9035 18.4791 6.99595 18.3625 7.1125C18.246 7.22905 18.1535 7.36741 18.0904 7.51969C18.0274 7.67197 17.9949 7.83518 17.9949 8C17.9949 8.16482 18.0274 8.32803 18.0904 8.48031C18.1535 8.63259 18.246 8.77095 18.3625 8.8875ZM13 24.25C13 23.9185 12.8683 23.6005 12.6339 23.3661C12.3995 23.1317 12.0815 23 11.75 23H4.25001C3.91849 23 3.60054 22.8683 3.36612 22.6339C3.1317 22.3995 3.00001 22.0815 3.00001 21.75L3.00001 4.25C3.00001 3.91848 3.1317 3.60054 3.36612 3.36612C3.60054 3.1317 3.91849 3 4.25001 3L11.75 3C12.0815 3 12.3995 2.8683 12.6339 2.63388C12.8683 2.39946 13 2.08152 13 1.75C13 1.41848 12.8683 1.10054 12.6339 0.866116C12.3995 0.631696 12.0815 0.5 11.75 0.5L4.25001 0.5C3.25545 0.5 2.30162 0.895088 1.59836 1.59835C0.895094 2.30161 0.500008 3.25544 0.500008 4.25L0.500008 21.75C0.500008 22.7446 0.895094 23.6984 1.59836 24.4017C2.30162 25.1049 3.25545 25.5 4.25001 25.5H11.75C12.0815 25.5 12.3995 25.3683 12.6339 25.1339C12.8683 24.8995 13 24.5815 13 24.25Z" fill="#CDCDCD"/>
</svg>
